<?xml version="1.0" standalone="no"?>
<!DOCTYPE svg PUBLIC "-//W3C//DTD SVG 20010904//EN"
 "http://www.w3.org/TR/2001/REC-SVG-20010904/DTD/svg10.dtd">
 <?xml-stylesheet type="text/css" href="svg.css" ?>
<svg version="1.0" xmlns="http://www.w3.org/2000/svg"
 width="977.000000pt" height="204.000000pt" viewBox="0 0 977.000000 204.000000"
 preserveAspectRatio="xMidYMid meet" >

<g transform="translate(0.000000,204.000000) scale(0.100000,-0.100000)"
fill="#254e70" stroke="none">
<path  d="M1747 1759 c-178 -19 -322 -81 -379 -165 -55 -81 -58 -111 -58 -550
0 -247 4 -422 11 -453 29 -135 133 -215 339 -259 109 -22 436 -21 545 2 177
38 282 115 321 233 17 53 19 92 19 478 0 416 0 421 -23 478 -29 70 -62 111
-122 149 -126 80 -389 115 -653 87z m298 -394 c21 -8 39 -25 45 -40 13 -34 13
-535 0 -569 -17 -45 -60 -58 -175 -54 -93 3 -106 5 -129 27 l-26 24 0 287 c0
284 0 287 23 307 31 29 42 31 140 32 56 1 100 -4 122 -14z"/>
<path d="M415 1749 c-186 -27 -291 -104 -335 -248 -18 -58 -20 -94 -20 -460 0
-308 3 -408 14 -449 35 -130 114 -205 261 -247 49 -15 117 -19 373 -22 173 -3
329 -2 348 1 47 9 57 48 52 213 -2 111 -6 135 -21 150 -16 16 -45 19 -273 23
l-256 5 -24 28 -24 28 0 270 0 271 29 29 29 29 245 0 c312 0 291 -13 295 172
4 150 -6 202 -41 212 -33 9 -583 5 -652 -5z"/>
<path d="M2820 1740 c-20 -20 -20 -33 -20 -700 0 -667 0 -680 20 -700 20 -20
33 -20 558 -20 449 0 541 2 558 14 18 14 19 31 22 361 2 301 1 351 -13 371
-15 24 -16 24 -205 24 -177 0 -190 -1 -200 -19 -6 -12 -10 -93 -10 -195 l0
-176 -140 0 -140 0 0 510 c0 497 -1 511 -20 530 -19 19 -33 20 -205 20 -172 0
-186 -1 -205 -20z"/>
<path d="M4210 1740 c-20 -20 -20 -30 -20 -700 0 -667 0 -680 20 -700 19 -19
33 -20 513 -20 410 0 496 2 513 14 17 13 19 28 19 176 0 148 -2 163 -19 176
-16 11 -76 14 -313 14 l-293 0 0 84 0 85 220 3 c163 2 222 6 232 16 18 18 18
306 0 324 -10 10 -69 14 -232 16 l-220 3 0 75 0 74 293 0 c237 0 297 3 313 14
17 13 19 28 19 175 0 118 -3 163 -13 173 -10 10 -119 14 -512 16 -490 2 -500
2 -520 -18z"/>
<path d="M5773 1750 c-12 -5 -29 -19 -37 -32 -27 -42 -225 -575 -246 -660 -18
-74 -20 -118 -20 -390 0 -295 1 -309 20 -328 18 -18 33 -20 193 -20 233 0 217
-14 217 191 l0 159 180 0 180 0 0 -153 c0 -116 3 -158 14 -173 13 -17 30 -19
205 -22 182 -3 191 -2 211 18 21 21 21 25 17 353 -3 306 -5 338 -25 402 -44
141 -232 620 -252 640 -20 19 -34 20 -328 22 -169 1 -317 -2 -329 -7z m366
-397 c5 -10 27 -79 50 -153 23 -74 44 -143 47 -152 5 -17 -7 -18 -150 -18
-106 0 -156 4 -156 11 0 20 91 303 102 316 16 20 95 17 107 -4z"/>
<path d="M6981 1741 c-21 -21 -21 -27 -21 -701 0 -667 0 -680 20 -700 19 -19
33 -20 205 -20 172 0 186 1 205 20 19 19 20 33 20 230 l0 210 158 0 c211 0
196 17 200 -234 2 -179 4 -192 23 -208 19 -16 44 -18 203 -18 142 0 187 3 202
14 18 14 19 29 19 288 l0 273 -30 60 c-35 70 -94 119 -161 136 l-45 12 29 17
c16 10 40 40 53 67 22 43 24 61 24 183 0 171 -15 222 -89 295 -86 86 -98 88
-583 92 -405 4 -412 4 -432 -16z m639 -361 c26 -26 33 -58 28 -137 -6 -92 -20
-103 -144 -103 l-94 0 0 130 0 130 95 0 c81 0 98 -3 115 -20z"/>
<path d="M8460 1740 c-20 -20 -20 -33 -20 -700 0 -667 0 -680 20 -700 19 -19
33 -20 198 -20 138 0 183 3 198 14 18 14 19 33 24 365 l5 351 105 -127 c58
-70 135 -165 173 -211 l67 -83 0 -137 c0 -75 5 -144 10 -152 7 -12 41 -16 177
-18 209 -4 228 -1 242 40 15 43 15 1313 0 1356 -6 17 -20 32 -32 36 -12 3 -96
6 -187 6 -134 0 -170 -3 -188 -16 -22 -15 -22 -19 -22 -245 0 -126 -3 -229 -8
-229 -4 0 -95 101 -202 224 -138 160 -207 231 -236 245 -35 18 -59 21 -172 21
-119 0 -134 -2 -152 -20z"/>
</g>
</svg>