<?xml version="1.0" standalone="no"?>
<!DOCTYPE svg PUBLIC "-//W3C//DTD SVG 20010904//EN"
 "http://www.w3.org/TR/2001/REC-SVG-20010904/DTD/svg10.dtd">
<svg version="1.0" xmlns="http://www.w3.org/2000/svg"
 width="708.000000pt" height="204.000000pt" viewBox="0 0 708.000000 204.000000"
 preserveAspectRatio="xMidYMid meet">

<g transform="translate(0.000000,204.000000) scale(0.100000,-0.100000)"
fill="#29251d" stroke="none">
<path d="M835 2019 c-136 -21 -188 -49 -372 -208 -171 -147 -195 -175 -225
-257 -17 -49 -22 -89 -25 -234 l-5 -175 -53 -51 c-42 -41 -55 -61 -65 -104
-15 -64 -8 -176 14 -219 17 -31 74 -81 94 -81 9 0 12 -44 12 -152 0 -174 15
-263 57 -339 42 -77 123 -133 240 -165 81 -21 311 -31 343 -14 13 7 86 65 162
128 111 93 139 121 144 147 3 17 4 95 2 173 -4 170 -5 173 -105 181 -91 8 -93
13 -93 211 0 190 -8 208 -93 234 -16 5 -12 12 25 42 64 54 67 64 68 204 l0
125 91 78 c49 43 95 90 100 105 6 15 9 93 7 184 -4 200 2 192 -151 195 -62 1
-139 -3 -172 -8z m289 -31 c13 -18 16 -53 16 -179 0 -184 0 -184 -99 -191 -89
-6 -91 -10 -91 -182 -1 -231 -13 -258 -118 -278 -97 -18 -93 -59 7 -72 97 -13
110 -45 111 -273 0 -173 5 -183 97 -183 91 0 93 -4 93 -190 0 -205 11 -194
-187 -188 -217 8 -318 46 -393 150 -55 75 -70 149 -70 338 l0 168 -30 12 c-36
15 -87 71 -96 105 -3 13 -4 64 -3 112 5 103 24 141 88 169 l39 17 4 201 3 201
32 67 c56 119 145 183 286 207 29 5 107 9 174 10 115 1 123 0 137 -21z"/>
<path d="M862 1809 c-57 -11 -102 -40 -127 -81 -18 -30 -20 -54 -23 -240 l-3
-208 -38 -10 c-65 -17 -85 -49 -89 -139 -6 -112 16 -146 111 -175 15 -5 17
-23 17 -188 0 -231 15 -272 111 -312 50 -21 139 -32 139 -17 0 6 -15 11 -33
11 -55 0 -124 29 -156 65 -40 46 -51 108 -51 294 l0 158 -31 7 c-17 3 -44 19
-60 35 -27 28 -29 34 -29 108 0 59 5 83 18 99 21 26 54 44 81 44 20 0 21 5 21
169 0 182 10 262 38 301 25 35 81 60 147 67 30 3 55 10 55 14 0 11 -39 10 -98
-2z"/>
<path d="M6295 2012 c-70 -46 -271 -227 -283 -255 -10 -22 -12 -72 -10 -178 4
-179 8 -187 107 -196 89 -8 91 -13 91 -206 0 -190 9 -220 70 -244 l40 -16 -52
-47 -53 -47 -5 -136 -5 -135 -85 -71 c-47 -40 -90 -84 -97 -99 -15 -34 -17
-277 -2 -320 16 -47 50 -56 197 -49 141 7 222 24 297 65 64 35 353 280 382
324 46 70 56 124 61 303 l4 170 53 51 c60 57 75 95 75 189 0 110 -33 177 -101
205 l-29 12 0 162 c0 235 -26 332 -107 411 -82 79 -189 113 -383 121 -123 5
-138 4 -165 -14z m375 -27 c131 -40 210 -124 246 -260 9 -32 14 -111 14 -225
l0 -175 47 -25 c65 -35 83 -73 83 -177 0 -45 -5 -94 -11 -110 -14 -37 -54 -79
-90 -93 l-29 -12 0 -168 c0 -190 -13 -252 -69 -334 -74 -107 -172 -145 -394
-153 -198 -8 -187 -18 -187 185 0 187 2 192 92 192 93 0 98 8 98 188 1 227 10
250 119 271 33 7 63 16 66 21 13 21 -10 37 -67 48 -106 20 -117 47 -118 275 0
178 -5 187 -97 187 -91 0 -93 4 -93 193 0 213 -12 201 185 194 99 -3 169 -11
205 -22z"/>
<path d="M6460 1813 c0 -6 25 -13 56 -16 64 -7 120 -33 146 -68 26 -35 38
-128 38 -309 l0 -156 45 -12 c58 -15 75 -47 75 -142 0 -66 -2 -74 -29 -101
-16 -16 -43 -32 -59 -35 l-30 -6 -4 -187 c-5 -199 -13 -235 -59 -278 -30 -27
-100 -53 -145 -53 -19 0 -34 -5 -34 -11 0 -16 94 -3 145 20 90 40 104 83 105
314 0 160 2 178 18 183 89 28 112 62 112 166 0 82 -22 120 -84 143 l-45 17 -3
202 c-4 236 -12 264 -89 303 -48 24 -159 42 -159 26z"/>
<path d="M3487 1870 c-94 -11 -180 -32 -247 -61 -58 -25 -359 -274 -406 -336
-57 -75 -64 -133 -64 -546 0 -377 4 -422 41 -522 41 -110 161 -206 297 -236
l52 -12 0 -53 c0 -29 4 -64 10 -78 l10 -26 227 0 228 0 131 110 c73 60 134
116 137 124 3 8 72 70 154 139 176 148 186 158 213 220 34 77 42 203 37 592
-5 389 -10 427 -62 506 -50 77 -153 133 -300 164 -86 18 -352 27 -458 15z
m467 -34 c85 -19 180 -63 227 -104 47 -41 85 -113 98 -186 15 -80 15 -783 0
-861 -28 -151 -129 -242 -315 -282 l-74 -17 0 -69 c0 -109 4 -107 -223 -107
-231 0 -227 -2 -227 105 l0 72 -61 12 c-197 39 -303 142 -329 318 -12 87 -12
704 0 801 5 40 18 93 29 117 50 114 186 187 406 219 68 10 402 -3 469 -18z"/>
<path d="M3545 1663 c-85 -10 -156 -36 -199 -74 -78 -69 -80 -81 -84 -434 -4
-377 -1 -416 41 -486 45 -76 107 -105 249 -121 l107 -12 4 -75 3 -76 2 76 2
76 82 8 c161 14 240 54 291 149 21 40 22 50 22 411 0 360 -1 371 -22 410 -45
85 -117 126 -246 144 -74 10 -186 12 -252 4z m335 -37 c75 -28 116 -61 144
-117 l26 -53 0 -351 0 -351 -26 -53 c-47 -94 -128 -130 -314 -138 -221 -10
-340 27 -397 124 l-28 48 0 370 0 370 28 47 c32 56 95 97 177 115 78 18 330
11 390 -11z"/>
<path d="M3595 1466 c-5 -2 -22 -7 -37 -10 -54 -12 -58 -36 -58 -351 0 -314 4
-337 58 -352 15 -5 68 -8 119 -8 78 0 96 4 120 21 l28 21 0 318 0 318 -26 19
c-20 15 -47 21 -110 24 -46 2 -88 2 -94 0z m-45 -275 c12 -23 14 -411 2 -411
-28 0 -32 30 -32 227 0 197 5 229 30 184z"/>
<path d="M1860 1863 c-131 -20 -180 -47 -361 -199 -232 -195 -239 -209 -239
-494 0 -221 10 -269 72 -336 22 -24 65 -56 94 -70 30 -15 53 -28 52 -29 -2 -1
-51 -43 -110 -94 l-108 -92 0 -169 0 -169 26 -20 c26 -20 38 -21 378 -21 502
0 516 3 718 172 187 156 222 192 255 262 28 60 28 63 28 261 0 223 -9 269 -65
337 -29 35 -155 108 -186 108 -28 0 -12 20 76 92 106 87 110 96 110 258 0 137
-10 182 -46 198 -17 9 -121 12 -347 11 -177 -1 -333 -3 -347 -6z m700 -33 c18
-18 20 -33 20 -170 0 -137 -2 -152 -20 -170 -19 -19 -33 -20 -279 -20 -284 0
-291 -1 -291 -59 0 -53 12 -58 212 -86 236 -32 308 -56 375 -127 59 -62 67
-93 71 -300 3 -154 1 -197 -13 -245 -22 -75 -62 -129 -130 -175 -93 -62 -141
-68 -564 -68 -358 0 -372 1 -391 20 -18 18 -20 33 -20 170 0 137 2 152 20 170
19 19 33 20 314 20 254 0 297 2 310 16 20 19 21 78 2 93 -8 6 -101 24 -207 40
-230 34 -294 55 -359 120 -67 67 -75 104 -75 341 0 189 1 197 26 250 44 94
126 158 234 184 46 11 141 15 403 15 329 1 343 0 362 -19z"/>
<path d="M1878 1656 c-103 -37 -128 -85 -128 -247 0 -136 11 -181 49 -208 19
-14 105 -36 269 -70 132 -27 255 -57 272 -66 57 -30 70 -65 70 -197 0 -157
-18 -199 -105 -239 -36 -17 -69 -19 -317 -19 -189 0 -278 -3 -278 -11 0 -7 90
-9 288 -7 276 3 289 4 329 26 24 12 55 41 70 64 27 40 28 46 28 172 0 146 -10
184 -56 217 -20 14 -110 37 -286 75 -328 68 -307 52 -311 247 -3 135 -2 144
20 177 13 19 43 45 68 58 42 21 55 22 292 22 159 0 248 4 248 10 0 16 -476 12
-522 -4z"/>
<path d="M4778 1862 c-9 -4 -79 -60 -157 -126 -113 -95 -142 -125 -146 -150
-3 -17 -5 -333 -3 -703 3 -630 4 -673 21 -690 16 -17 55 -18 563 -21 399 -2
550 1 566 9 12 6 84 64 160 127 110 92 139 121 143 146 3 17 5 183 3 368 -3
308 -5 339 -21 355 -15 16 -40 18 -185 21 -91 2 -180 1 -197 -2 -19 -4 -81
-49 -165 -120 l-135 -113 -5 433 c-5 398 -6 435 -23 451 -16 16 -40 18 -210
20 -106 1 -199 -1 -209 -5z m404 -29 c17 -15 18 -45 18 -530 l0 -513 134 0
134 0 4 181 c3 165 5 182 22 195 15 11 61 14 202 14 178 0 183 -1 198 -22 14
-19 16 -71 16 -363 0 -292 -2 -344 -16 -363 l-15 -22 -546 0 c-494 0 -548 2
-565 17 -17 15 -18 50 -18 701 0 624 1 687 17 704 14 16 35 18 206 18 163 0
193 -2 209 -17z"/>
<path d="M4972 1133 l-2 -543 365 0 365 0 0 205 c0 130 -4 205 -10 205 -6 0
-10 -72 -10 -195 l0 -195 -350 0 -350 0 -3 533 -2 532 -3 -542z"/>
</g>
</svg>